<?xml version="1.0" encoding="UTF-8"?>
<!DOCTYPE svg PUBLIC "-//W3C//DTD SVG 1.1//EN" "http://www.w3.org/Graphics/SVG/1.1/DTD/svg11.dtd">
<!-- Creator: CorelDRAW -->
<svg xmlns="http://www.w3.org/2000/svg" xml:space="preserve" width="46.922mm" height="8.4883mm" version="1.1" shape-rendering="geometricPrecision" text-rendering="geometricPrecision" image-rendering="optimizeQuality" fill-rule="evenodd" clip-rule="evenodd"
viewBox="0 0 4719.66 853.8"
 xmlns:xlink="http://www.w3.org/1999/xlink"
 xmlns:xodm="http://www.corel.com/coreldraw/odm/2003">
 <g id="Layer_x0020_1">
  <metadata id="CorelCorpID_0Corel-Layer"/>
  <path fill="#64BA46" d="M558.52 781.68c-10.98,-20.69 -64.52,-70.6 -82.88,-88.83 -33.83,-33.56 -31.66,6.04 -137.2,-19.56 -261.6,-63.46 -285.99,-440.15 -22.82,-532.71 80.49,-28.3 66.76,26.79 66.7,-140.53 -135.71,-2.38 -240.51,85.07 -293.07,149.31 -68.14,83.27 -110.9,210.31 -77.85,350.06 28.34,119.89 105.33,203.36 187.04,253.53 110.97,68.13 227.85,68.12 360.09,28.74z"/>
  <path fill="#22B111" fill-rule="nonzero" d="M1180.34 38.18l0 -7.16 -157.61 0 0 7.16c5.73,0.71 12.18,1.44 19.34,2.87 7.16,2.15 13.61,4.29 20.06,7.16 6.45,3.58 11.47,7.16 15.76,11.47 4.29,5.01 6.45,10.74 6.45,17.9 0,5.02 -0.71,12.18 -1.43,22.21 -0.72,10.03 -5.02,25.79 -11.47,48 -5.01,17.19 -10.74,35.82 -17.19,55.16 -6.45,20.06 -12.9,40.11 -19.34,59.46 -6.45,20.06 -12.9,39.4 -19.34,58.74 -6.45,19.34 -12.9,36.54 -17.91,51.58 -5.72,15.76 -10.03,28.66 -13.61,39.4 -3.58,10.75 -6.45,17.91 -7.88,21.5 -3.58,-9.31 -8.6,-23.64 -15.76,-44.42 -7.89,-20.06 -15.76,-42.98 -25.08,-68.77 -9.31,-25.08 -18.63,-51.58 -28.66,-79.51 -10.03,-27.94 -19.34,-53.73 -27.22,-77.37 -7.89,-23.65 -15.05,-43.7 -20.06,-60.18 -5.02,-16.48 -7.89,-25.79 -7.89,-28.66 0,-7.16 2.87,-12.9 9.31,-17.9 5.73,-5.02 12.18,-8.6 20.06,-11.47 7.16,-2.14 14.33,-4.29 22.21,-5.01 7.16,-0.71 12.18,-1.44 15.05,-2.15l0 -7.16 -224.22 0 0 7.88c11.46,0.72 21.49,2.15 29.37,4.31 7.88,2.87 15.04,6.45 20.77,10.03 5.02,4.29 9.31,8.59 12.9,12.9 2.87,4.29 5.02,8.59 7.16,12.17 6.45,13.62 12.9,27.94 18.63,42.28 5.73,15.04 12.18,31.51 19.34,50.86 -10.74,32.95 -20.77,64.48 -31.52,94.56 -10.74,30.81 -20.06,58.03 -28.66,81.68 -8.59,24.35 -15.75,44.41 -21.49,60.17 -5.73,16.48 -9.31,26.5 -10.75,30.09 -5.01,-14.32 -12.17,-32.95 -20.77,-55.16 -8.6,-22.2 -17.9,-45.85 -27.22,-71.64 -10.03,-25.07 -20.07,-50.86 -29.37,-77.37 -10.04,-26.5 -19.34,-50.86 -27.23,-73.07 -7.88,-22.21 -14.32,-40.84 -19.34,-56.6 -5.01,-15.04 -7.88,-25.07 -7.88,-29.37 0,-7.88 2.14,-14.32 7.16,-19.34 4.29,-5.01 9.31,-8.59 15.76,-10.74 6.45,-2.15 12.18,-4.29 17.9,-5.01 5.73,-0.72 10.03,-1.44 12.18,-1.44l0 -7.16 -202.02 0 0 7.88c10.74,0.72 19.34,2.15 25.79,5.02 6.45,3.58 12.18,7.16 17.19,10.74 5.02,4.31 8.6,8.6 11.47,12.9 2.14,4.29 4.29,7.89 5.72,10.74 2.87,5.73 5.73,11.47 7.89,16.49 2.14,5.01 5.01,10.74 7.16,16.48 2.15,5.72 4.29,12.17 7.16,18.62 2.15,6.45 5.02,14.33 8.6,23.65 11.46,30.09 22.92,60.17 34.38,90.27 11.47,30.8 23.65,61.61 35.83,93.84 12.17,32.24 24.35,65.91 37.96,101.02 12.9,35.09 26.5,71.64 41.55,110.32l8.6 0 31.51 -70.21c7.89,-22.21 16.49,-45.85 25.08,-70.21 8.6,-23.64 17.19,-47.99 25.79,-73.07 8.6,-25.08 17.19,-49.43 25.79,-73.79 8.6,-23.64 16.48,-46.56 24.36,-68.77 10.03,26.5 20.06,53.72 29.37,80.95 9.31,27.93 19.34,55.88 30.09,85.25 10.03,29.37 20.77,59.46 32.24,90.98 10.74,31.52 22.92,64.48 35.82,98.87l7.16 0 30.09 -68.78c9.31,-27.22 18.63,-55.88 29.37,-86.67 10.75,-30.1 20.78,-60.18 31.52,-90.27 10.03,-30.09 20.06,-59.46 30.1,-88.11 10.03,-27.94 18.62,-53.73 26.5,-77.37 5.01,-13.61 9.31,-25.79 13.61,-35.1 4.29,-9.31 8.6,-16.48 12.18,-22.92 3.58,-5.73 7.16,-10.03 10.03,-13.61 2.87,-3.58 5.01,-5.73 6.45,-7.16 1.43,-2.15 6.45,-5.73 15.04,-10.75 7.89,-5.01 17.91,-8.59 30.1,-10.03z"/>
  <path fill="#22B111" d="M934.05 811.63c-66.75,-14.42 -84.18,-7.66 -152.53,-56.52 -115.36,-82.46 -248.38,-270.19 -380.87,-278.39 13.15,20.66 53.55,49.24 103.61,136.53 57.18,99.72 108,218.92 234.82,238.64 51.98,8.08 154.28,-10.91 187.96,-33.58 8.45,-5.67 4.92,-3.94 7,-6.69z"/>
  <path fill="#64BA46" fill-rule="nonzero" d="M1549.09 393.77l-32.16 -41.02c-14.92,4.67 -30.76,6.99 -47.54,6.99 -22.83,0 -44.28,-4.19 -64.31,-12.11 -20.05,-7.93 -36.82,-19.57 -51.27,-34.03 -14.44,-14.44 -26.1,-31.22 -34.02,-50.8 -8.39,-19.57 -12.58,-41.02 -12.58,-63.85 0,-22.83 4.19,-44.28 12.58,-63.85 7.92,-19.57 19.57,-36.35 34.02,-50.8 14.44,-14.44 31.22,-25.63 51.27,-34.02 20.04,-7.93 41.48,-12.12 64.31,-12.12 23.31,0 44.74,4.19 64.78,12.12 19.57,7.92 36.82,19.1 51.27,33.56 14.44,14.44 25.63,31.68 34.02,51.26 7.93,19.57 12.12,41.02 12.12,63.85 0,25.17 -4.66,48.47 -14.44,69.44 -9.79,20.97 -23.77,39.15 -41.02,53.59l55.46 71.78 -82.49 0zm-166.38 -195.28c0,12.58 2.32,24.69 6.52,35.42 4.19,11.19 10.26,20.51 18.19,28.44 7.92,7.92 16.78,14.44 27.49,18.64 10.72,4.66 21.91,6.99 34.49,6.99 12.58,0 23.77,-2.33 34.49,-6.99 10.71,-4.19 19.57,-10.72 27.49,-18.64 7.93,-7.93 13.98,-17.25 18.18,-28.44 4.19,-10.72 6.53,-22.83 6.53,-35.42 0,-12.58 -2.33,-24.7 -6.53,-35.43 -4.19,-10.71 -10.25,-20.04 -18.18,-27.96 -7.92,-7.92 -16.78,-13.98 -27.49,-18.64 -10.72,-4.19 -21.91,-6.53 -34.49,-6.53 -12.58,0 -23.77,2.33 -34.49,6.53 -10.71,4.66 -19.57,10.72 -27.49,18.64 -7.93,7.93 -13.99,17.25 -18.19,27.96 -4.19,10.72 -6.52,22.84 -6.52,35.43z"/>
  <path id="_1" fill="#64BA46" fill-rule="nonzero" d="M1813.81 359.74c-43.34,0 -76.9,-11.19 -100.67,-33.08 -23.77,-21.91 -35.89,-53.6 -35.89,-95.08l0 -188.75 73.64 0 0 184.09c0,20.97 5.12,36.82 15.84,48.47 10.72,11.65 26.1,17.71 47.07,17.71 20.51,0 35.89,-6.07 46.6,-17.71 10.26,-11.65 15.38,-27.5 15.38,-48.47l0 -184.09 73.64 0 0 188.75c0,41.48 -11.65,73.18 -34.95,95.08 -23.77,21.9 -57.32,33.08 -100.67,33.08z"/>
  <path id="_2" fill="#64BA46" fill-rule="nonzero" d="M2084.59 42.83l88.08 0 114.65 312.26 -73.17 0 -20.97 -57.79 -129.1 0 -20.97 57.79 -73.17 0 114.65 -312.26zm89.48 199.01l-45.2 -125.37 -45.68 125.37 90.88 0z"/>
  <polygon id="_3" fill="#64BA46" fill-rule="nonzero" points="2323.67,42.83 2397.31,42.83 2397.31,289.84 2529.21,289.84 2529.21,355.09 2323.67,355.09 "/>
  <polygon id="_4" fill="#64BA46" fill-rule="nonzero" points="2573.01,42.83 2646.65,42.83 2646.65,355.09 2573.01,355.09 "/>
  <polygon id="_5" fill="#64BA46" fill-rule="nonzero" points="2781.34,105.28 2682.54,105.28 2682.54,42.83 2953.31,42.83 2953.31,105.28 2854.52,105.28 2854.52,355.09 2781.34,355.09 "/>
  <polygon id="_6" fill="#64BA46" fill-rule="nonzero" points="3043.73,42.83 3116.44,181.24 3189.14,42.83 3272.56,42.83 3153.26,255.82 3153.26,355.09 3079.62,355.09 3079.62,255.82 2960.31,42.83 "/>
  <polygon id="_7" fill="#64BA46" fill-rule="nonzero" points="3471.11,42.83 3533.1,262.35 3596.95,42.83 3660.79,42.83 3724.64,262.35 3786.63,42.83 3861.66,42.83 3768.92,355.09 3690.62,355.09 3628.63,148.62 3567.11,355.09 3488.82,355.09 3396.08,42.83 "/>
  <polygon id="_8" fill="#64BA46" fill-rule="nonzero" points="3898.01,42.83 4127.31,42.83 4127.31,108.08 3971.65,108.08 3971.65,171.46 4099.81,171.46 4099.81,227.38 3971.65,227.38 3971.65,289.84 4127.31,289.84 4127.31,355.09 3898.01,355.09 "/>
  <path id="_9" fill="#64BA46" fill-rule="nonzero" d="M4173.45 135.11c0,-31.22 10.72,-54.99 32.16,-71.77 20.97,-16.78 51.27,-25.17 90.88,-25.17 40.55,0 71.3,8.85 92.28,27.03 20.97,18.18 31.69,43.34 32.16,75.5l-72.7 0c-0.46,-13.98 -5.12,-24.69 -13.98,-32.16 -9.31,-6.99 -22.83,-10.71 -40.07,-10.71 -15.38,0 -27.04,2.8 -35.43,8.85 -8.39,6.06 -12.58,13.98 -12.58,24.23 0,6.53 1.86,12.12 5.13,16.31 3.26,4.66 7.92,8.39 13.98,11.65 5.59,3.27 12.12,5.59 20.04,7.46 7.46,2.32 15.38,4.19 23.77,5.59 13.06,2.8 26.56,5.59 40.55,8.85 13.98,3.26 27.04,8.39 38.69,14.92 11.65,6.52 20.97,15.38 28.43,26.09 7.46,10.72 11.19,25.18 11.19,43.35 0,28.43 -10.25,51.26 -31.22,68.51 -20.97,17.24 -53.59,26.09 -96.93,26.09 -44.28,0 -77.83,-9.31 -99.74,-27.49 -22.37,-18.18 -33.56,-43.34 -33.56,-74.57l72.7 0c1.4,13.98 6.99,24.7 17.71,31.69 10.25,7.45 24.7,11.19 43.34,11.19 16.78,0 29.82,-2.8 39.15,-8.85 8.85,-6.07 13.52,-13.98 13.52,-24.24 0,-6.52 -1.87,-12.11 -5.13,-16.3 -3.73,-4.19 -8.85,-7.46 -14.92,-10.26 -6.06,-2.8 -13.51,-5.13 -21.43,-6.99 -8.39,-1.4 -17.24,-3.26 -26.1,-4.66 -12.58,-2.33 -25.63,-5.13 -38.69,-8.39 -13.51,-3.27 -25.63,-7.93 -36.35,-14.92 -10.71,-6.53 -19.57,-15.38 -26.56,-26.56 -6.99,-11.19 -10.25,-26.1 -10.25,-44.28z"/>
  <polygon id="_10" fill="#64BA46" fill-rule="nonzero" points="4547.69,105.28 4448.88,105.28 4448.88,42.83 4719.66,42.83 4719.66,105.28 4620.86,105.28 4620.86,355.09 4547.69,355.09 "/>
  <path id="_11" fill="#64BA46" fill-rule="nonzero" d="M1330.37 705.59c0,-17.07 3.2,-33.07 9.24,-48 6.05,-14.94 14.57,-28.09 25.6,-39.11 10.67,-11.02 23.47,-19.55 38.4,-25.96 14.93,-6.4 31.28,-9.6 48.7,-9.6 15.64,0 30.23,2.13 43.73,6.76 13.16,4.62 25.24,11.01 35.56,19.19 10.31,8.54 18.49,18.85 25.24,30.58 6.76,12.09 11.02,25.6 13.16,40.17l-59.38 0c-3.91,-13.15 -11.38,-23.82 -22.04,-31.63 -11.02,-7.47 -23.11,-11.39 -36.62,-11.39 -8.89,0 -17.42,1.78 -25.25,5.34 -7.82,3.55 -14.57,8.53 -20.27,14.57 -5.68,6.05 -10.31,13.51 -13.51,21.69 -3.2,8.53 -4.98,17.77 -4.98,27.38 0,9.6 1.78,18.84 4.98,27.02 3.2,8.53 7.83,16 13.51,22.05 5.69,6.05 12.45,11.01 20.27,14.57 7.83,3.55 16.36,5.33 25.25,5.33 13.51,0 25.6,-3.91 36.62,-11.73 10.66,-7.47 18.13,-18.14 22.04,-31.29l59.38 0c-2.13,14.57 -6.4,28.08 -13.16,39.82 -6.75,12.09 -14.93,22.4 -25.24,30.58 -10.32,8.53 -22.4,14.93 -35.56,19.55 -13.51,4.62 -28.09,6.75 -43.73,6.75 -17.42,0 -33.78,-3.2 -48.7,-9.6 -14.94,-6.4 -27.73,-15.29 -38.4,-26.31 -11.02,-11.01 -19.55,-23.82 -25.6,-38.75 -6.05,-14.94 -9.24,-30.94 -9.24,-48z"/>
  <path id="_12" fill="#64BA46" fill-rule="nonzero" d="M1593.11 705.59c0,-17.42 3.2,-33.78 9.61,-48.71 6.04,-14.93 14.93,-27.73 25.95,-38.76 11.02,-11.01 23.82,-19.55 39.11,-25.95 15.29,-6.05 31.64,-9.24 49.07,-9.24 17.77,0 34.13,3.2 49.42,9.24 14.94,6.05 28.09,14.57 39.11,25.6 11.02,11.02 19.55,24.18 25.96,39.11 6.05,14.94 9.24,31.29 9.24,48.71 0,17.42 -3.2,33.78 -9.24,48.7 -6.41,14.94 -14.94,27.73 -25.96,38.76 -11.01,11.02 -24.17,19.92 -39.11,25.95 -15.29,6.05 -31.64,9.24 -49.42,9.24 -17.42,0 -33.78,-3.2 -49.07,-9.24 -15.29,-6.04 -28.08,-14.93 -39.11,-25.95 -11.02,-11.02 -19.92,-23.82 -25.95,-38.76 -6.41,-14.93 -9.61,-31.28 -9.61,-48.7zm57.6 -0.36c0,9.61 1.78,18.85 4.98,27.03 3.2,8.53 7.83,15.64 13.87,21.69 6.05,6.05 12.79,11.02 20.97,14.22 8.18,3.55 16.72,5.33 26.31,5.33 9.6,0 18.14,-1.78 26.31,-5.33 8.18,-3.2 14.93,-8.18 20.97,-14.22 6.05,-6.05 10.66,-13.16 13.87,-21.69 3.2,-8.18 4.97,-17.42 4.97,-27.03 0,-9.6 -1.77,-18.84 -4.97,-27.02 -3.21,-8.18 -7.83,-15.29 -13.87,-21.33 -6.05,-6.05 -12.79,-10.66 -20.97,-14.22 -8.18,-3.2 -16.72,-4.98 -26.31,-4.98 -9.6,0 -18.14,1.78 -26.31,4.98 -8.18,3.56 -14.93,8.18 -20.97,14.22 -6.05,6.05 -10.67,13.16 -13.87,21.33 -3.2,8.18 -4.98,17.42 -4.98,27.02z"/>
  <polygon id="_13" fill="#64BA46" fill-rule="nonzero" points="1877.9,586.48 1955.76,586.48 2010.16,716.96 2064.55,586.48 2142.41,586.48 2142.41,824.69 2087.31,824.69 2087.31,654.74 2036.12,779.18 1983.85,779.18 1933.01,654.74 1933.01,824.69 1877.9,824.69 "/>
  <path id="_14" fill="#64BA46" fill-rule="nonzero" d="M2293.89 586.48c15.28,0 28.8,2.13 40.88,6.04 12.09,4.27 22.4,10.31 30.94,17.78 8.53,7.46 14.93,16.71 19.55,27.73 4.62,11.02 6.75,23.1 6.75,36.26 0,13.16 -2.13,25.25 -6.75,35.91 -4.63,10.67 -11.02,19.55 -19.55,27.03 -8.54,7.46 -18.85,13.51 -30.94,17.42 -12.08,3.9 -25.6,6.05 -40.88,6.05l-45.51 0 0 63.99 -56.18 0 0 -238.21 101.69 0zm-3.56 124.79c13.87,0 24.88,-3.2 32.71,-9.95 7.46,-6.41 11.38,-15.29 11.38,-26.67 0,-11.74 -3.91,-20.63 -11.38,-27.38 -7.83,-6.4 -18.84,-9.61 -32.71,-9.61l-41.95 0 0 73.6 41.95 0z"/>
  <path id="_15" fill="#64BA46" fill-rule="nonzero" d="M2473.78 586.48l67.2 0 87.46 238.21 -55.81 0 -16 -44.09 -98.48 0 -16 44.09 -55.81 0 87.46 -238.21zm68.27 151.81l-34.49 -95.65 -34.84 95.65 69.33 0z"/>
  <polygon id="_16" fill="#64BA46" fill-rule="nonzero" points="2656.17,586.48 2725.51,586.48 2814.75,744.69 2814.75,586.48 2869.86,586.48 2869.86,824.69 2800.89,824.69 2711.28,666.12 2711.28,824.69 2656.17,824.69 "/>
  <polygon id="_17" fill="#64BA46" fill-rule="nonzero" points="2961.23,586.48 3016.69,692.08 3072.15,586.48 3135.79,586.48 3044.78,748.96 3044.78,824.69 2988.61,824.69 2988.61,748.96 2897.59,586.48 "/>
  <path id="_18" fill="#64BA46" fill-rule="nonzero" d="M3353.75 586.48c15.28,0 28.8,2.13 40.88,6.04 12.09,4.27 22.4,10.31 30.94,17.78 8.53,7.46 14.93,16.71 19.55,27.73 4.62,11.02 6.75,23.1 6.75,36.26 0,13.16 -2.13,25.25 -6.75,35.91 -4.63,10.67 -11.02,19.55 -19.55,27.03 -8.54,7.46 -18.85,13.51 -30.94,17.42 -12.08,3.9 -25.6,6.05 -40.88,6.05l-45.51 0 0 63.99 -56.18 0 0 -238.21 101.69 0zm-3.56 124.79c13.87,0 24.88,-3.2 32.71,-9.95 7.46,-6.41 11.38,-15.29 11.38,-26.67 0,-11.74 -3.91,-20.63 -11.38,-27.38 -7.83,-6.4 -18.84,-9.61 -32.71,-9.61l-41.95 0 0 73.6 41.95 0z"/>
  <polygon id="_19" fill="#64BA46" fill-rule="nonzero" points="3539.69,634.12 3464.32,634.12 3464.32,586.48 3670.89,586.48 3670.89,634.12 3595.51,634.12 3595.51,824.69 3539.69,824.69 "/>
  <polygon id="_20" fill="#64BA46" fill-rule="nonzero" points="3739.86,586.48 3795.32,692.08 3850.78,586.48 3914.42,586.48 3823.41,748.96 3823.41,824.69 3767.24,824.69 3767.24,748.96 3676.22,586.48 "/>
  <path id="_21" fill="#64BA46" fill-rule="nonzero" d="M3910.52 799.8c0,-7.47 2.84,-14.22 8.18,-19.55 5.33,-5.34 12.08,-8.18 20.26,-8.18 7.47,0 14.22,2.84 19.55,8.18 5.34,5.33 8.18,12.08 8.18,19.55 0,8.18 -2.84,14.93 -8.18,20.26 -5.33,5.34 -12.08,8.18 -19.55,8.18 -8.18,0 -14.93,-2.84 -20.26,-8.18 -5.34,-5.33 -8.18,-12.08 -8.18,-20.26z"/>
  <polygon id="_22" fill="#64BA46" fill-rule="nonzero" points="4095.4,586.48 4151.57,586.48 4151.57,774.91 4252.19,774.91 4252.19,824.69 4095.4,824.69 "/>
  <polygon id="_23" fill="#64BA46" fill-rule="nonzero" points="4305.88,634.12 4230.5,634.12 4230.5,586.48 4437.08,586.48 4437.08,634.12 4361.7,634.12 4361.7,824.69 4305.88,824.69 "/>
  <path id="_24" fill="#64BA46" fill-rule="nonzero" d="M4464.44 824.69l0 -238.21 98.48 0c17.42,0 33.78,2.84 48.71,8.88 14.57,6.05 27.38,14.22 38.04,24.53 10.66,10.67 18.84,23.11 24.88,37.69 6.05,14.57 8.89,30.58 8.89,48 0,17.42 -2.85,33.41 -8.89,48 -6.05,14.57 -14.22,27.37 -24.88,37.68 -10.66,10.31 -23.47,18.49 -38.04,24.53 -14.94,6.05 -31.29,8.89 -48.71,8.89l-98.48 0zm56.18 -50.85l42.31 0c9.24,0 17.78,-1.77 25.6,-4.97 7.83,-3.21 14.58,-8.18 19.92,-14.22 5.33,-6.05 9.6,-13.16 12.79,-21.7 3.2,-8.18 4.63,-17.42 4.63,-27.73 0,-9.95 -1.43,-19.19 -4.63,-27.73 -3.2,-8.18 -7.46,-15.29 -12.79,-21.32 -5.33,-6.05 -12.09,-10.67 -19.92,-13.87 -7.82,-3.2 -16.36,-4.98 -25.6,-4.98l-42.31 0 0 136.52z"/>
 </g>
</svg>
