<?xml version="1.0" encoding="UTF-8"?>
<!DOCTYPE svg PUBLIC "-//W3C//DTD SVG 1.1//EN" "http://www.w3.org/Graphics/SVG/1.1/DTD/svg11.dtd">
<!-- Creator: CorelDRAW -->
<svg xmlns="http://www.w3.org/2000/svg" xml:space="preserve" width="28.7725mm" height="28.5319mm" version="1.1" shape-rendering="geometricPrecision" text-rendering="geometricPrecision" image-rendering="optimizeQuality" fill-rule="evenodd" clip-rule="evenodd"
viewBox="0 0 2958.03 2933.29"
 xmlns:xlink="http://www.w3.org/1999/xlink"
 xmlns:xodm="http://www.corel.com/coreldraw/odm/2003">
 <g id="Layer_x0020_1">
  <metadata id="CorelCorpID_0Corel-Layer"/>
  <g id="_105553227217824">
   <path fill="#64BA46" d="M1354.01 1814.3c-25.5,-48.01 -149.74,-163.86 -192.36,-206.15 -78.51,-77.9 -73.5,14 -318.47,-45.43 -607.17,-147.29 -663.8,-1021.6 -52.96,-1236.42 186.82,-65.71 154.93,62.17 154.8,-326.19 -314.99,-5.53 -558.22,197.46 -680.21,346.56 -158.15,193.29 -257.39,488.15 -180.69,812.5 65.78,278.25 244.48,472.02 434.11,588.44 257.56,158.12 528.86,158.11 835.78,66.69z"/>
   <path fill="white" fill-rule="nonzero" d="M2797.33 88.59l0 -16.62 -365.82 0 0 16.62c13.3,1.67 28.26,3.33 44.9,6.65 16.62,4.99 31.59,9.98 46.56,16.63 14.96,8.31 26.6,16.62 36.58,26.6 9.97,11.65 14.96,24.95 14.96,41.58 0,11.64 -1.66,28.27 -3.32,51.55 -1.67,23.28 -11.64,59.85 -26.61,111.4 -11.64,39.91 -24.94,83.14 -39.91,128.04 -14.96,46.56 -29.93,93.12 -44.9,138.02 -14.96,46.55 -29.93,91.45 -44.89,136.34 -14.97,44.9 -29.94,84.81 -41.58,119.72 -13.3,36.59 -23.28,66.52 -31.59,91.46 -8.32,24.94 -14.97,41.58 -18.29,49.88 -8.32,-21.61 -19.95,-54.87 -36.58,-103.1 -18.29,-46.55 -36.59,-99.76 -58.2,-159.63 -21.62,-58.19 -43.23,-119.72 -66.52,-184.57 -23.28,-64.84 -44.9,-124.71 -63.19,-179.57 -18.29,-54.88 -34.91,-101.43 -46.56,-139.67 -11.64,-38.24 -18.29,-59.86 -18.29,-66.52 0,-16.62 6.65,-29.93 21.62,-41.57 13.3,-11.65 28.26,-19.95 46.56,-26.61 16.62,-5 33.25,-9.98 51.55,-11.64 16.62,-1.67 28.26,-3.33 34.91,-5l0 -16.62 -520.45 0 0 18.29c26.61,1.67 49.88,4.99 68.17,9.97 18.29,6.65 34.92,14.97 48.22,23.29 11.65,9.97 21.62,19.95 29.94,29.93 6.65,9.98 11.64,19.95 16.62,28.27 14.97,31.59 29.93,64.85 43.23,98.1 13.3,34.92 28.27,73.17 44.9,118.06 -24.94,76.49 -48.22,149.65 -73.16,219.48 -24.94,71.5 -46.56,134.69 -66.52,189.57 -19.95,56.53 -36.58,103.08 -49.88,139.67 -13.3,38.24 -21.62,61.52 -24.94,69.84 -11.64,-33.26 -28.27,-76.49 -48.22,-128.04 -19.95,-51.55 -41.58,-106.43 -63.2,-166.28 -23.28,-58.2 -46.55,-118.06 -68.17,-179.58 -23.28,-61.52 -44.9,-118.05 -63.19,-169.6 -18.29,-51.55 -33.26,-94.78 -44.9,-131.37 -11.64,-34.91 -18.29,-58.2 -18.29,-68.17 0,-18.29 4.99,-33.26 16.62,-44.9 9.98,-11.64 21.62,-19.95 36.59,-24.94 14.96,-4.99 28.26,-9.97 41.57,-11.64 13.3,-1.67 23.28,-3.33 28.27,-3.33l0 -16.62 -468.91 0 0 18.29c24.94,1.67 44.9,4.99 59.86,11.64 14.97,8.32 28.26,16.63 39.91,24.94 11.64,9.98 19.95,19.95 26.6,29.94 5,9.97 9.98,18.29 13.3,24.94 6.65,13.3 13.3,26.61 18.3,38.24 4.99,11.64 11.64,24.94 16.62,38.24 4.99,13.3 9.97,28.26 16.62,43.23 5,14.97 11.64,33.26 19.95,54.87 26.61,69.84 53.21,139.67 79.82,209.51 26.6,71.5 54.87,143.01 83.14,217.83 28.26,74.82 56.53,152.98 88.13,234.45 29.93,81.49 61.52,166.28 96.44,256.07l19.94 0 73.17 -162.95c18.29,-51.55 38.24,-106.42 58.2,-162.96 19.95,-54.87 39.91,-111.4 59.85,-169.6 19.95,-58.2 39.91,-114.73 59.86,-171.27 19.95,-54.88 38.24,-108.08 56.53,-159.63 23.29,61.52 46.56,124.71 68.17,187.89 21.62,64.85 44.9,129.7 69.85,197.87 23.28,68.18 48.22,138.02 74.82,211.18 24.94,73.17 53.2,149.66 83.14,229.47l16.62 0 69.84 -159.63c21.62,-63.19 43.23,-129.69 68.17,-201.19 24.95,-69.84 48.23,-139.67 73.17,-209.51 23.28,-69.84 46.56,-138.02 69.84,-204.53 23.28,-64.85 43.23,-124.72 61.52,-179.58 11.65,-31.59 21.62,-59.86 31.59,-81.47 9.98,-21.62 19.95,-38.24 28.27,-53.21 8.32,-13.3 16.62,-23.28 23.28,-31.59 6.65,-8.32 11.64,-13.3 14.97,-16.62 3.32,-4.99 14.97,-13.3 34.91,-24.94 18.3,-11.65 41.58,-19.95 69.85,-23.29z"/>
   <path fill="#22B111" d="M2225.64 1883.84c-154.91,-33.48 -195.39,-17.8 -354.02,-131.19 -267.75,-191.38 -576.49,-627.13 -884.01,-646.17 30.51,47.97 124.3,114.28 240.5,316.92 132.72,231.45 250.66,508.13 545.02,553.87 120.65,18.74 358.08,-25.33 436.27,-77.92 19.6,-13.18 11.41,-9.16 16.23,-15.52z"/>
  </g>
  <path fill="#64BA46" fill-rule="nonzero" d="M209.68 2556.69l-27.87 -35.55c-12.93,4.03 -26.67,6.06 -41.22,6.06 -19.79,0 -38.38,-3.64 -55.74,-10.51 -17.37,-6.87 -31.92,-16.96 -44.44,-29.49 -12.52,-12.53 -22.63,-27.07 -29.5,-44.04 -7.27,-16.96 -10.91,-35.55 -10.91,-55.34 0,-19.8 3.64,-38.38 10.91,-55.35 6.87,-16.96 16.97,-31.51 29.5,-44.03 12.52,-12.52 27.07,-22.22 44.44,-29.5 17.36,-6.87 35.95,-10.5 55.74,-10.5 20.2,0 38.79,3.63 56.16,10.5 16.96,6.87 31.91,16.57 44.43,29.09 12.52,12.52 22.22,27.47 29.5,44.43 6.87,16.97 10.5,35.55 10.5,55.35 0,21.82 -4.04,42.02 -12.52,60.19 -8.48,18.18 -20.6,33.94 -35.55,46.46l48.07 62.22 -71.5 0zm-144.23 -169.27c0,10.91 2.03,21.4 5.65,30.7 3.64,9.69 8.89,17.78 15.76,24.64 6.87,6.87 14.55,12.52 23.83,16.16 9.29,4.04 18.99,6.06 29.9,6.06 10.91,0 20.6,-2.02 29.9,-6.06 9.29,-3.64 16.97,-9.29 23.84,-16.16 6.87,-6.87 12.12,-14.95 15.75,-24.64 3.64,-9.29 5.65,-19.79 5.65,-30.7 0,-10.91 -2.02,-21.41 -5.65,-30.71 -3.63,-9.29 -8.88,-17.37 -15.75,-24.24 -6.87,-6.87 -14.55,-12.12 -23.84,-16.16 -9.29,-3.63 -18.99,-5.65 -29.9,-5.65 -10.91,0 -20.6,2.03 -29.9,5.65 -9.28,4.04 -16.96,9.29 -23.83,16.16 -6.87,6.87 -12.12,14.95 -15.76,24.24 -3.63,9.29 -5.65,19.8 -5.65,30.71z"/>
  <path id="_1" fill="#64BA46" fill-rule="nonzero" d="M439.14 2527.19c-37.57,0 -66.65,-9.69 -87.26,-28.68 -20.6,-18.99 -31.1,-46.46 -31.1,-82.41l0 -163.62 63.82 0 0 159.58c0,18.18 4.45,31.91 13.74,42.01 9.29,10.11 22.63,15.36 40.8,15.36 17.78,0 31.11,-5.25 40.4,-15.36 8.88,-10.1 13.33,-23.83 13.33,-42.01l0 -159.58 63.83 0 0 163.62c0,35.95 -10.11,63.42 -30.31,82.41 -20.6,18.99 -49.69,28.68 -87.26,28.68z"/>
  <path id="_2" fill="#64BA46" fill-rule="nonzero" d="M673.86 2252.48l76.36 0 99.38 270.67 -63.43 0 -18.18 -50.1 -111.91 0 -18.18 50.1 -63.43 0 99.38 -270.67zm77.57 172.5l-39.19 -108.68 -39.59 108.68 78.78 0z"/>
  <polygon id="_3" fill="#64BA46" fill-rule="nonzero" points="881.11,2252.48 944.93,2252.48 944.93,2466.6 1059.27,2466.6 1059.27,2523.15 881.11,2523.15 "/>
  <polygon id="_4" fill="#64BA46" fill-rule="nonzero" points="1097.24,2252.48 1161.07,2252.48 1161.07,2523.15 1097.24,2523.15 "/>
  <polygon id="_5" fill="#64BA46" fill-rule="nonzero" points="1277.82,2306.61 1192.18,2306.61 1192.18,2252.48 1426.89,2252.48 1426.89,2306.61 1341.25,2306.61 1341.25,2523.15 1277.82,2523.15 "/>
  <polygon id="_6" fill="#64BA46" fill-rule="nonzero" points="1505.26,2252.48 1568.3,2372.47 1631.32,2252.48 1703.63,2252.48 1600.21,2437.1 1600.21,2523.15 1536.37,2523.15 1536.37,2437.1 1432.95,2252.48 "/>
  <polygon id="_7" fill="#64BA46" fill-rule="nonzero" points="1875.73,2252.48 1929.46,2442.76 1984.81,2252.48 2040.15,2252.48 2095.5,2442.76 2149.23,2252.48 2214.28,2252.48 2133.88,2523.15 2066.01,2523.15 2012.28,2344.18 1958.95,2523.15 1891.08,2523.15 1810.68,2252.48 "/>
  <polygon id="_8" fill="#64BA46" fill-rule="nonzero" points="2245.79,2252.48 2444.54,2252.48 2444.54,2309.03 2309.61,2309.03 2309.61,2363.97 2420.71,2363.97 2420.71,2412.46 2309.61,2412.46 2309.61,2466.6 2444.54,2466.6 2444.54,2523.15 2245.79,2523.15 "/>
  <path id="_9" fill="#64BA46" fill-rule="nonzero" d="M2484.55 2332.46c0,-27.07 9.29,-47.67 27.87,-62.21 18.19,-14.55 44.44,-21.82 78.78,-21.82 35.15,0 61.81,7.67 79.99,23.43 18.18,15.75 27.47,37.57 27.87,65.45l-63.02 0c-0.4,-12.12 -4.44,-21.41 -12.12,-27.88 -8.08,-6.06 -19.8,-9.28 -34.74,-9.28 -13.33,0 -23.44,2.42 -30.71,7.67 -7.27,5.25 -10.91,12.12 -10.91,21.01 0,5.65 1.61,10.5 4.44,14.14 2.83,4.04 6.87,7.27 12.12,10.1 4.85,2.83 10.51,4.85 17.37,6.47 6.47,2.03 13.33,3.64 20.6,4.85 11.31,2.42 23.03,4.84 35.15,7.67 12.12,2.83 23.43,7.28 33.53,12.93 10.11,5.65 18.19,13.33 24.64,22.62 6.47,9.29 9.69,21.82 9.69,37.58 0,24.64 -8.88,44.43 -27.06,59.38 -18.19,14.95 -46.46,22.63 -84.03,22.63 -38.38,0 -67.46,-8.08 -86.45,-23.84 -19.39,-15.75 -29.09,-37.57 -29.09,-64.64l63.03 0c1.2,12.12 6.06,21.41 15.35,27.47 8.88,6.47 21.41,9.69 37.57,9.69 14.55,0 25.86,-2.42 33.94,-7.67 7.68,-5.25 11.72,-12.12 11.72,-21.01 0,-5.65 -1.61,-10.5 -4.44,-14.14 -3.24,-3.64 -7.68,-6.47 -12.93,-8.89 -5.25,-2.42 -11.71,-4.44 -18.59,-6.06 -7.27,-1.21 -14.94,-2.83 -22.62,-4.04 -10.91,-2.02 -22.22,-4.44 -33.54,-7.27 -11.71,-2.83 -22.22,-6.87 -31.51,-12.93 -9.29,-5.65 -16.96,-13.32 -23.03,-23.03 -6.06,-9.69 -8.88,-22.62 -8.88,-38.38z"/>
  <polygon id="_10" fill="#64BA46" fill-rule="nonzero" points="2808.96,2306.61 2723.31,2306.61 2723.31,2252.48 2958.03,2252.48 2958.03,2306.61 2872.38,2306.61 2872.38,2523.15 2808.96,2523.15 "/>
  <path id="_11" fill="#64BA46" fill-rule="nonzero" d="M20.12 2826.97c0,-14.79 2.78,-28.66 8.02,-41.61 5.23,-12.94 12.64,-24.34 22.19,-33.91 9.24,-9.55 20.34,-16.94 33.28,-22.49 12.94,-5.55 27.12,-8.32 42.22,-8.32 13.56,0 26.2,1.85 37.91,5.85 11.41,4.01 21.89,9.55 30.82,16.64 8.94,7.39 16.03,16.34 21.89,26.5 5.85,10.48 9.55,22.19 11.4,34.82l-51.47 0c-3.39,-11.4 -9.87,-20.64 -19.11,-27.43 -9.55,-6.47 -20.04,-9.86 -31.75,-9.86 -7.7,0 -15.1,1.54 -21.88,4.63 -6.79,3.08 -12.64,7.39 -17.57,12.64 -4.92,5.23 -8.93,11.71 -11.71,18.79 -2.78,7.4 -4.32,15.41 -4.32,23.74 0,8.32 1.54,16.33 4.32,23.42 2.78,7.39 6.79,13.87 11.71,19.11 4.93,5.23 10.78,9.55 17.57,12.64 6.78,3.07 14.18,4.62 21.88,4.62 11.71,0 22.2,-3.39 31.75,-10.17 9.24,-6.48 15.72,-15.72 19.11,-27.12l51.47 0c-1.85,12.64 -5.55,24.34 -11.4,34.51 -5.86,10.49 -12.94,19.42 -21.89,26.5 -8.93,7.4 -19.41,12.95 -30.82,16.95 -11.71,4.01 -24.34,5.86 -37.91,5.86 -15.1,0 -29.28,-2.78 -42.22,-8.33 -12.94,-5.54 -24.04,-13.25 -33.28,-22.8 -9.55,-9.55 -16.95,-20.64 -22.19,-33.59 -5.24,-12.94 -8.02,-26.81 -8.02,-41.61z"/>
  <path id="_12" fill="#64BA46" fill-rule="nonzero" d="M247.87 2826.97c0,-15.1 2.78,-29.28 8.33,-42.22 5.23,-12.94 12.94,-24.04 22.49,-33.6 9.55,-9.55 20.64,-16.94 33.9,-22.49 13.25,-5.24 27.43,-8.01 42.53,-8.01 15.41,0 29.59,2.77 42.84,8.01 12.94,5.24 24.34,12.64 33.9,22.19 9.56,9.56 16.95,20.96 22.5,33.91 5.23,12.94 8.01,27.12 8.01,42.22 0,15.1 -2.78,29.28 -8.01,42.22 -5.55,12.94 -12.94,24.04 -22.5,33.59 -9.55,9.55 -20.95,17.26 -33.9,22.49 -13.25,5.24 -27.43,8.02 -42.84,8.02 -15.1,0 -29.28,-2.78 -42.53,-8.02 -13.25,-5.23 -24.34,-12.94 -33.9,-22.49 -9.55,-9.55 -17.26,-20.64 -22.49,-33.59 -5.55,-12.94 -8.33,-27.12 -8.33,-42.22zm49.92 -0.31c0,8.32 1.54,16.34 4.32,23.42 2.78,7.39 6.79,13.56 12.02,18.8 5.24,5.23 11.09,9.55 18.19,12.33 7.08,3.07 14.49,4.62 22.8,4.62 8.33,0 15.72,-1.54 22.8,-4.62 7.09,-2.78 12.95,-7.09 18.19,-12.33 5.24,-5.24 9.24,-11.41 12.02,-18.8 2.78,-7.08 4.32,-15.1 4.32,-23.42 0,-8.33 -1.54,-16.34 -4.32,-23.43 -2.78,-7.08 -6.78,-13.25 -12.02,-18.48 -5.23,-5.24 -11.09,-9.24 -18.19,-12.33 -7.08,-2.78 -14.48,-4.32 -22.8,-4.32 -8.32,0 -15.72,1.54 -22.8,4.32 -7.09,3.08 -12.94,7.08 -18.19,12.33 -5.23,5.23 -9.24,11.4 -12.02,18.48 -2.78,7.09 -4.32,15.1 -4.32,23.43z"/>
  <polygon id="_13" fill="#64BA46" fill-rule="nonzero" points="494.72,2723.72 562.21,2723.72 609.37,2836.83 656.52,2723.72 724.01,2723.72 724.01,2930.21 676.25,2930.21 676.25,2782.89 631.86,2890.76 586.57,2890.76 542.49,2782.89 542.49,2930.21 494.72,2930.21 "/>
  <path id="_14" fill="#64BA46" fill-rule="nonzero" d="M855.31 2723.72c13.25,0 24.96,1.85 35.44,5.24 10.48,3.7 19.42,8.93 26.81,15.41 7.4,6.47 12.94,14.49 16.95,24.04 4.01,9.55 5.85,20.04 5.85,31.44 0,11.4 -1.84,21.88 -5.85,31.12 -4.01,9.25 -9.55,16.95 -16.95,23.43 -7.39,6.47 -16.34,11.71 -26.81,15.1 -10.48,3.38 -22.19,5.23 -35.44,5.23l-39.45 0 0 55.47 -48.7 0 0 -206.49 88.15 0zm-3.08 108.17c12.02,0 21.57,-2.77 28.35,-8.63 6.47,-5.55 9.86,-13.25 9.86,-23.11 0,-10.18 -3.39,-17.88 -9.86,-23.74 -6.79,-5.54 -16.34,-8.32 -28.35,-8.32l-36.36 0 0 63.79 36.36 0z"/>
  <path id="_15" fill="#64BA46" fill-rule="nonzero" d="M1011.24 2723.72l58.25 0 75.81 206.49 -48.38 0 -13.87 -38.21 -85.37 0 -13.87 38.21 -48.38 0 75.81 -206.49zm59.18 131.6l-29.9 -82.9 -30.2 82.9 60.1 0z"/>
  <polygon id="_16" fill="#64BA46" fill-rule="nonzero" points="1169.34,2723.72 1229.44,2723.72 1306.8,2860.86 1306.8,2723.72 1354.57,2723.72 1354.57,2930.21 1294.78,2930.21 1217.12,2792.75 1217.12,2930.21 1169.34,2930.21 "/>
  <polygon id="_17" fill="#64BA46" fill-rule="nonzero" points="1433.77,2723.72 1481.85,2815.26 1529.93,2723.72 1585.08,2723.72 1506.19,2864.56 1506.19,2930.21 1457.5,2930.21 1457.5,2864.56 1378.61,2723.72 "/>
  <path id="_18" fill="#64BA46" fill-rule="nonzero" d="M1774 2723.72c13.25,0 24.96,1.85 35.44,5.24 10.48,3.7 19.42,8.93 26.81,15.41 7.4,6.47 12.94,14.49 16.95,24.04 4.01,9.55 5.85,20.04 5.85,31.44 0,11.4 -1.84,21.88 -5.85,31.12 -4.01,9.25 -9.55,16.95 -16.95,23.43 -7.39,6.47 -16.34,11.71 -26.81,15.1 -10.48,3.38 -22.19,5.23 -35.44,5.23l-39.45 0 0 55.47 -48.7 0 0 -206.49 88.15 0zm-3.08 108.17c12.02,0 21.57,-2.77 28.35,-8.63 6.47,-5.55 9.86,-13.25 9.86,-23.11 0,-10.18 -3.39,-17.88 -9.86,-23.74 -6.79,-5.54 -16.34,-8.32 -28.35,-8.32l-36.36 0 0 63.79 36.36 0z"/>
  <polygon id="_19" fill="#64BA46" fill-rule="nonzero" points="1935.18,2765.02 1869.85,2765.02 1869.85,2723.72 2048.9,2723.72 2048.9,2765.02 1983.57,2765.02 1983.57,2930.21 1935.18,2930.21 "/>
  <polygon id="_20" fill="#64BA46" fill-rule="nonzero" points="2108.69,2723.72 2156.77,2815.26 2204.85,2723.72 2260,2723.72 2181.11,2864.56 2181.11,2930.21 2132.42,2930.21 2132.42,2864.56 2053.53,2723.72 "/>
  <path id="_21" fill="#64BA46" fill-rule="nonzero" d="M2256.62 2908.64c0,-6.48 2.47,-12.33 7.09,-16.95 4.62,-4.63 10.48,-7.09 17.56,-7.09 6.48,0 12.33,2.47 16.95,7.09 4.63,4.63 7.08,10.48 7.08,16.95 0,7.08 -2.46,12.94 -7.08,17.56 -4.63,4.63 -10.48,7.09 -16.95,7.09 -7.08,0 -12.94,-2.47 -17.56,-7.09 -4.63,-4.62 -7.09,-10.48 -7.09,-17.56z"/>
  <polygon id="_22" fill="#64BA46" fill-rule="nonzero" points="2416.87,2723.72 2465.57,2723.72 2465.57,2887.06 2552.78,2887.06 2552.78,2930.21 2416.87,2930.21 "/>
  <polygon id="_23" fill="#64BA46" fill-rule="nonzero" points="2599.32,2765.02 2533.99,2765.02 2533.99,2723.72 2713.04,2723.72 2713.04,2765.02 2647.7,2765.02 2647.7,2930.21 2599.32,2930.21 "/>
  <path id="_24" fill="#64BA46" fill-rule="nonzero" d="M2736.76 2930.21l0 -206.49 85.37 0c15.1,0 29.28,2.47 42.22,7.71 12.64,5.23 23.73,12.33 32.97,21.26 9.25,9.25 16.34,20.04 21.58,32.67 5.23,12.64 7.7,26.5 7.7,41.61 0,15.1 -2.47,28.97 -7.7,41.61 -5.24,12.64 -12.33,23.73 -21.58,32.66 -9.24,8.93 -20.34,16.03 -32.97,21.27 -12.94,5.23 -27.12,7.7 -42.22,7.7l-85.37 0zm48.7 -44.07l36.67 0c8.01,0 15.41,-1.54 22.19,-4.31 6.79,-2.78 12.64,-7.09 17.26,-12.33 4.63,-5.24 8.32,-11.41 11.09,-18.8 2.78,-7.09 4.01,-15.1 4.01,-24.04 0,-8.64 -1.23,-16.64 -4.01,-24.04 -2.78,-7.09 -6.47,-13.25 -11.09,-18.5 -4.63,-5.24 -10.48,-9.24 -17.26,-12.02 -6.78,-2.78 -14.18,-4.32 -22.19,-4.32l-36.67 0 0 118.34z"/>
 </g>
</svg>
